<svg width="34" height="62" viewBox="0 0 34 62" fill="none" xmlns="http://www.w3.org/2000/svg">
<path d="M5.21076 12.0322C5.42501 12.4619 5.86208 12.7369 6.34199 12.7369C6.82191 12.7369 7.25897 12.4619 7.47322 12.0322L12.5638 1.8392C12.7609 1.44386 12.7351 0.979762 12.5038 0.601608C12.2724 0.223455 11.861 0 11.424 0H1.26861C0.83154 0 0.420183 0.232049 0.188796 0.601608C-0.0425919 0.979762 -0.0597317 1.44386 0.128806 1.8392L5.21076 12.0322ZM9.37574 2.54394L6.35056 8.62018L3.32538 2.54394H9.37574ZM6.35056 37.3685C8.03884 37.3685 9.64998 36.6981 10.8412 35.5035C12.0324 34.3088 12.7009 32.6845 12.7009 31C12.7009 29.3155 12.0324 27.6912 10.8412 26.4965C9.64998 25.3019 8.03027 24.6315 6.35056 24.6315C4.67086 24.6315 3.05115 25.3019 1.85993 26.4965C0.668711 27.6912 0.00025786 29.3155 0.00025786 31C0.00025786 32.6845 0.668711 34.3088 1.85993 35.5035C3.05115 36.6981 4.66229 37.3685 6.35056 37.3685ZM6.35056 27.1755C7.36181 27.1755 8.33021 27.5794 9.05009 28.2928C9.76139 29.0061 10.1642 29.9859 10.1642 31C10.1642 32.0141 9.76139 32.9853 9.05009 33.7072C8.33878 34.4206 7.36181 34.8245 6.35056 34.8245C5.33931 34.8245 4.37091 34.4206 3.65104 33.7072C2.93974 32.9939 2.53695 32.0141 2.53695 31C2.53695 29.9859 2.93974 29.0147 3.65104 28.2928C4.36234 27.5794 5.33931 27.1755 6.35056 27.1755ZM1.26861 62H11.4325C12.1353 62 12.7009 61.4328 12.7009 60.728V50.5351C12.7009 49.8303 12.1353 49.2631 11.4325 49.2631H1.26861C0.565872 49.2631 0.00025786 49.8303 0.00025786 50.5351V60.728C0.00025786 61.4328 0.565872 62 1.26861 62ZM2.53695 51.807H10.1642V59.4561H2.53695V51.807ZM22.8648 54.3596V32.272H15.6661C14.9633 32.272 14.3977 31.7047 14.3977 31C14.3977 30.2953 14.9633 29.728 15.6661 29.728H22.8648V7.64042H15.6661C14.9633 7.64042 14.3977 7.07319 14.3977 6.36845C14.3977 5.66371 14.9633 5.09648 15.6661 5.09648H24.1331C24.8359 5.09648 25.4015 5.66371 25.4015 6.36845V29.728H32.6002C33.3029 29.728 33.8686 30.2953 33.8686 31C33.8686 31.7047 33.3029 32.272 32.6002 32.272H25.4015V55.6316C25.4015 56.3363 24.8359 56.9035 24.1331 56.9035H15.6661C14.9633 56.9035 14.3977 56.3363 14.3977 55.6316C14.3977 54.9268 14.9633 54.3596 15.6661 54.3596H22.8648Z" fill="#6278F7"/>
</svg>
