<svg width="1440" height="213" viewBox="0 0 1440 213" fill="none" xmlns="http://www.w3.org/2000/svg">
<rect width="1440" height="213" fill="#6278F7"/>
<path d="M1039.83 100H1045.73C1047.21 100 1048.52 100.293 1049.67 100.88C1050.81 101.467 1051.7 102.293 1052.33 103.36C1052.97 104.413 1053.29 105.627 1053.29 107C1053.29 108.373 1052.97 109.593 1052.33 110.66C1051.7 111.713 1050.81 112.533 1049.67 113.12C1048.52 113.707 1047.21 114 1045.73 114H1039.83V100ZM1045.61 112.26C1046.74 112.26 1047.73 112.04 1048.59 111.6C1049.45 111.16 1050.12 110.547 1050.59 109.76C1051.05 108.96 1051.29 108.04 1051.29 107C1051.29 105.96 1051.05 105.047 1050.59 104.26C1050.12 103.46 1049.45 102.84 1048.59 102.4C1047.73 101.96 1046.74 101.74 1045.61 101.74H1041.83V112.26H1045.61ZM1065.65 108.76C1065.65 108.907 1065.64 109.1 1065.61 109.34H1057.01C1057.13 110.273 1057.54 111.027 1058.23 111.6C1058.94 112.16 1059.81 112.44 1060.85 112.44C1062.12 112.44 1063.14 112.013 1063.91 111.16L1064.97 112.4C1064.49 112.96 1063.89 113.387 1063.17 113.68C1062.46 113.973 1061.67 114.12 1060.79 114.12C1059.67 114.12 1058.68 113.893 1057.81 113.44C1056.94 112.973 1056.27 112.327 1055.79 111.5C1055.32 110.673 1055.09 109.74 1055.09 108.7C1055.09 107.673 1055.32 106.747 1055.77 105.92C1056.24 105.093 1056.87 104.453 1057.67 104C1058.48 103.533 1059.4 103.3 1060.41 103.3C1061.42 103.3 1062.32 103.533 1063.11 104C1063.91 104.453 1064.53 105.093 1064.97 105.92C1065.42 106.747 1065.65 107.693 1065.65 108.76ZM1060.41 104.92C1059.49 104.92 1058.72 105.2 1058.09 105.76C1057.48 106.32 1057.12 107.053 1057.01 107.96H1063.81C1063.7 107.067 1063.34 106.34 1062.71 105.78C1062.1 105.207 1061.33 104.92 1060.41 104.92ZM1071.36 114.12C1070.49 114.12 1069.66 114.007 1068.86 113.78C1068.06 113.54 1067.43 113.24 1066.98 112.88L1067.78 111.36C1068.24 111.693 1068.81 111.96 1069.48 112.16C1070.14 112.36 1070.82 112.46 1071.5 112.46C1073.18 112.46 1074.02 111.98 1074.02 111.02C1074.02 110.7 1073.9 110.447 1073.68 110.26C1073.45 110.073 1073.16 109.94 1072.82 109.86C1072.48 109.767 1072 109.667 1071.38 109.56C1070.52 109.427 1069.82 109.273 1069.28 109.1C1068.74 108.927 1068.28 108.633 1067.9 108.22C1067.51 107.807 1067.32 107.227 1067.32 106.48C1067.32 105.52 1067.72 104.753 1068.52 104.18C1069.32 103.593 1070.39 103.3 1071.74 103.3C1072.44 103.3 1073.15 103.387 1073.86 103.56C1074.56 103.733 1075.14 103.967 1075.6 104.26L1074.78 105.78C1073.91 105.22 1072.89 104.94 1071.72 104.94C1070.9 104.94 1070.28 105.073 1069.86 105.34C1069.43 105.607 1069.22 105.96 1069.22 106.4C1069.22 106.747 1069.34 107.02 1069.58 107.22C1069.82 107.42 1070.11 107.567 1070.46 107.66C1070.82 107.753 1071.32 107.86 1071.96 107.98C1072.81 108.127 1073.5 108.287 1074.02 108.46C1074.55 108.62 1075 108.9 1075.38 109.3C1075.75 109.7 1075.94 110.26 1075.94 110.98C1075.94 111.94 1075.52 112.707 1074.7 113.28C1073.88 113.84 1072.77 114.12 1071.36 114.12ZM1087.92 108.76C1087.92 108.907 1087.9 109.1 1087.88 109.34H1079.28C1079.4 110.273 1079.8 111.027 1080.5 111.6C1081.2 112.16 1082.08 112.44 1083.12 112.44C1084.38 112.44 1085.4 112.013 1086.18 111.16L1087.24 112.4C1086.76 112.96 1086.16 113.387 1085.44 113.68C1084.73 113.973 1083.94 114.12 1083.06 114.12C1081.94 114.12 1080.94 113.893 1080.08 113.44C1079.21 112.973 1078.54 112.327 1078.06 111.5C1077.59 110.673 1077.36 109.74 1077.36 108.7C1077.36 107.673 1077.58 106.747 1078.04 105.92C1078.5 105.093 1079.14 104.453 1079.94 104C1080.75 103.533 1081.66 103.3 1082.68 103.3C1083.69 103.3 1084.59 103.533 1085.38 104C1086.18 104.453 1086.8 105.093 1087.24 105.92C1087.69 106.747 1087.92 107.693 1087.92 108.76ZM1082.68 104.92C1081.76 104.92 1080.98 105.2 1080.36 105.76C1079.74 106.32 1079.38 107.053 1079.28 107.96H1086.08C1085.97 107.067 1085.6 106.34 1084.98 105.78C1084.36 105.207 1083.6 104.92 1082.68 104.92ZM1096.24 103.3C1097.59 103.3 1098.66 103.693 1099.44 104.48C1100.24 105.253 1100.64 106.393 1100.64 107.9V114H1098.72V108.12C1098.72 107.093 1098.48 106.32 1097.98 105.8C1097.49 105.28 1096.78 105.02 1095.86 105.02C1094.82 105.02 1094 105.327 1093.4 105.94C1092.8 106.54 1092.5 107.407 1092.5 108.54V114H1090.58V103.4H1092.42V105C1092.81 104.453 1093.33 104.033 1093.98 103.74C1094.65 103.447 1095.4 103.3 1096.24 103.3ZM1113.38 103.4L1108.74 114H1106.78L1102.14 103.4H1104.14L1107.78 111.9L1111.5 103.4H1113.38ZM1119.42 114.12C1118.37 114.12 1117.42 113.887 1116.58 113.42C1115.74 112.953 1115.08 112.313 1114.6 111.5C1114.13 110.673 1113.9 109.74 1113.9 108.7C1113.9 107.66 1114.13 106.733 1114.6 105.92C1115.08 105.093 1115.74 104.453 1116.58 104C1117.42 103.533 1118.37 103.3 1119.42 103.3C1120.47 103.3 1121.41 103.533 1122.24 104C1123.08 104.453 1123.73 105.093 1124.2 105.92C1124.68 106.733 1124.92 107.66 1124.92 108.7C1124.92 109.74 1124.68 110.673 1124.2 111.5C1123.73 112.313 1123.08 112.953 1122.24 113.42C1121.41 113.887 1120.47 114.12 1119.42 114.12ZM1119.42 112.44C1120.1 112.44 1120.71 112.287 1121.24 111.98C1121.79 111.66 1122.21 111.22 1122.52 110.66C1122.83 110.087 1122.98 109.433 1122.98 108.7C1122.98 107.967 1122.83 107.32 1122.52 106.76C1122.21 106.187 1121.79 105.747 1121.24 105.44C1120.71 105.133 1120.1 104.98 1119.42 104.98C1118.74 104.98 1118.13 105.133 1117.58 105.44C1117.05 105.747 1116.62 106.187 1116.3 106.76C1115.99 107.32 1115.84 107.967 1115.84 108.7C1115.84 109.433 1115.99 110.087 1116.3 110.66C1116.62 111.22 1117.05 111.66 1117.58 111.98C1118.13 112.287 1118.74 112.44 1119.42 112.44ZM1127.57 99.16H1129.49V114H1127.57V99.16ZM1142.54 103.4L1137.9 114H1135.94L1131.3 103.4H1133.3L1136.94 111.9L1140.66 103.4H1142.54ZM1144.33 103.4H1146.25V114H1144.33V103.4ZM1145.29 101.36C1144.92 101.36 1144.61 101.24 1144.35 101C1144.11 100.76 1143.99 100.467 1143.99 100.12C1143.99 99.7733 1144.11 99.48 1144.35 99.24C1144.61 98.9867 1144.92 98.86 1145.29 98.86C1145.67 98.86 1145.97 98.98 1146.21 99.22C1146.47 99.4467 1146.59 99.7333 1146.59 100.08C1146.59 100.44 1146.47 100.747 1146.21 101C1145.97 101.24 1145.67 101.36 1145.29 101.36ZM1159.92 99.16V114H1158.08V112.32C1157.65 112.907 1157.11 113.353 1156.46 113.66C1155.8 113.967 1155.08 114.12 1154.3 114.12C1153.27 114.12 1152.35 113.893 1151.54 113.44C1150.72 112.987 1150.08 112.353 1149.62 111.54C1149.16 110.713 1148.94 109.767 1148.94 108.7C1148.94 107.633 1149.16 106.693 1149.62 105.88C1150.08 105.067 1150.72 104.433 1151.54 103.98C1152.35 103.527 1153.27 103.3 1154.3 103.3C1155.06 103.3 1155.76 103.447 1156.4 103.74C1157.04 104.02 1157.57 104.44 1158 105V99.16H1159.92ZM1154.46 112.44C1155.12 112.44 1155.73 112.287 1156.28 111.98C1156.82 111.66 1157.25 111.22 1157.56 110.66C1157.86 110.087 1158.02 109.433 1158.02 108.7C1158.02 107.967 1157.86 107.32 1157.56 106.76C1157.25 106.187 1156.82 105.747 1156.28 105.44C1155.73 105.133 1155.12 104.98 1154.46 104.98C1153.78 104.98 1153.16 105.133 1152.62 105.44C1152.08 105.747 1151.66 106.187 1151.34 106.76C1151.03 107.32 1150.88 107.967 1150.88 108.7C1150.88 109.433 1151.03 110.087 1151.34 110.66C1151.66 111.22 1152.08 111.66 1152.62 111.98C1153.16 112.287 1153.78 112.44 1154.46 112.44ZM1168.09 114.12C1167.04 114.12 1166.09 113.887 1165.25 113.42C1164.41 112.953 1163.75 112.313 1163.27 111.5C1162.8 110.673 1162.57 109.74 1162.57 108.7C1162.57 107.66 1162.8 106.733 1163.27 105.92C1163.75 105.093 1164.41 104.453 1165.25 104C1166.09 103.533 1167.04 103.3 1168.09 103.3C1169.14 103.3 1170.08 103.533 1170.91 104C1171.75 104.453 1172.4 105.093 1172.87 105.92C1173.35 106.733 1173.59 107.66 1173.59 108.7C1173.59 109.74 1173.35 110.673 1172.87 111.5C1172.4 112.313 1171.75 112.953 1170.91 113.42C1170.08 113.887 1169.14 114.12 1168.09 114.12ZM1168.09 112.44C1168.77 112.44 1169.38 112.287 1169.91 111.98C1170.46 111.66 1170.88 111.22 1171.19 110.66C1171.5 110.087 1171.65 109.433 1171.65 108.7C1171.65 107.967 1171.5 107.32 1171.19 106.76C1170.88 106.187 1170.46 105.747 1169.91 105.44C1169.38 105.133 1168.77 104.98 1168.09 104.98C1167.41 104.98 1166.8 105.133 1166.25 105.44C1165.72 105.747 1165.29 106.187 1164.97 106.76C1164.66 107.32 1164.51 107.967 1164.51 108.7C1164.51 109.433 1164.66 110.087 1164.97 110.66C1165.29 111.22 1165.72 111.66 1166.25 111.98C1166.8 112.287 1167.41 112.44 1168.09 112.44ZM1187.24 103.3C1188.26 103.3 1189.18 103.527 1190 103.98C1190.81 104.433 1191.44 105.067 1191.9 105.88C1192.36 106.693 1192.6 107.633 1192.6 108.7C1192.6 109.767 1192.36 110.713 1191.9 111.54C1191.44 112.353 1190.81 112.987 1190 113.44C1189.18 113.893 1188.26 114.12 1187.24 114.12C1186.48 114.12 1185.78 113.973 1185.14 113.68C1184.51 113.387 1183.98 112.96 1183.54 112.4V117.88H1181.62V103.4H1183.46V105.08C1183.88 104.493 1184.42 104.053 1185.08 103.76C1185.73 103.453 1186.45 103.3 1187.24 103.3ZM1187.08 112.44C1187.76 112.44 1188.36 112.287 1188.9 111.98C1189.44 111.66 1189.87 111.22 1190.18 110.66C1190.5 110.087 1190.66 109.433 1190.66 108.7C1190.66 107.967 1190.5 107.32 1190.18 106.76C1189.87 106.187 1189.44 105.747 1188.9 105.44C1188.36 105.133 1187.76 104.98 1187.08 104.98C1186.41 104.98 1185.8 105.14 1185.26 105.46C1184.72 105.767 1184.3 106.2 1183.98 106.76C1183.67 107.32 1183.52 107.967 1183.52 108.7C1183.52 109.433 1183.67 110.087 1183.98 110.66C1184.28 111.22 1184.71 111.66 1185.26 111.98C1185.8 112.287 1186.41 112.44 1187.08 112.44ZM1199.79 114.12C1198.74 114.12 1197.79 113.887 1196.95 113.42C1196.11 112.953 1195.45 112.313 1194.97 111.5C1194.5 110.673 1194.27 109.74 1194.27 108.7C1194.27 107.66 1194.5 106.733 1194.97 105.92C1195.45 105.093 1196.11 104.453 1196.95 104C1197.79 103.533 1198.74 103.3 1199.79 103.3C1200.84 103.3 1201.78 103.533 1202.61 104C1203.45 104.453 1204.1 105.093 1204.57 105.92C1205.05 106.733 1205.29 107.66 1205.29 108.7C1205.29 109.74 1205.05 110.673 1204.57 111.5C1204.1 112.313 1203.45 112.953 1202.61 113.42C1201.78 113.887 1200.84 114.12 1199.79 114.12ZM1199.79 112.44C1200.47 112.44 1201.08 112.287 1201.61 111.98C1202.16 111.66 1202.58 111.22 1202.89 110.66C1203.2 110.087 1203.35 109.433 1203.35 108.7C1203.35 107.967 1203.2 107.32 1202.89 106.76C1202.58 106.187 1202.16 105.747 1201.61 105.44C1201.08 105.133 1200.47 104.98 1199.79 104.98C1199.11 104.98 1198.5 105.133 1197.95 105.44C1197.42 105.747 1196.99 106.187 1196.67 106.76C1196.36 107.32 1196.21 107.967 1196.21 108.7C1196.21 109.433 1196.36 110.087 1196.67 110.66C1196.99 111.22 1197.42 111.66 1197.95 111.98C1198.5 112.287 1199.11 112.44 1199.79 112.44ZM1209.79 105.18C1210.12 104.567 1210.61 104.1 1211.26 103.78C1211.92 103.46 1212.71 103.3 1213.65 103.3V105.16C1213.54 105.147 1213.39 105.14 1213.21 105.14C1212.17 105.14 1211.35 105.453 1210.75 106.08C1210.16 106.693 1209.87 107.573 1209.87 108.72V114H1207.95V103.4H1209.79V105.18ZM1230.72 110.5H1223.28L1221.74 114H1219.68L1226.02 100H1228L1234.36 114H1232.26L1230.72 110.5ZM1230.02 108.9L1227 102.04L1223.98 108.9H1230.02ZM1236.17 99.16H1238.09V114H1236.17V99.16ZM1251.63 103.4V114H1249.81V112.4C1249.43 112.947 1248.91 113.373 1248.27 113.68C1247.65 113.973 1246.96 114.12 1246.21 114.12C1244.8 114.12 1243.69 113.733 1242.87 112.96C1242.06 112.173 1241.65 111.02 1241.65 109.5V103.4H1243.57V109.28C1243.57 110.307 1243.82 111.087 1244.31 111.62C1244.81 112.14 1245.51 112.4 1246.43 112.4C1247.45 112.4 1248.25 112.093 1248.83 111.48C1249.42 110.867 1249.71 110 1249.71 108.88V103.4H1251.63ZM1257.13 105.18C1257.46 104.567 1257.96 104.1 1258.61 103.78C1259.26 103.46 1260.06 103.3 1260.99 103.3V105.16C1260.88 105.147 1260.74 105.14 1260.55 105.14C1259.51 105.14 1258.69 105.453 1258.09 106.08C1257.5 106.693 1257.21 107.573 1257.21 108.72V114H1255.29V103.4H1257.13V105.18ZM1267.2 103.3C1268.66 103.3 1269.78 103.66 1270.56 104.38C1271.34 105.1 1271.74 106.173 1271.74 107.6V114H1269.92V112.6C1269.6 113.093 1269.14 113.473 1268.54 113.74C1267.95 113.993 1267.25 114.12 1266.44 114.12C1265.25 114.12 1264.3 113.833 1263.58 113.26C1262.87 112.687 1262.52 111.933 1262.52 111C1262.52 110.067 1262.86 109.32 1263.54 108.76C1264.22 108.187 1265.3 107.9 1266.78 107.9H1269.82V107.52C1269.82 106.693 1269.58 106.06 1269.1 105.62C1268.62 105.18 1267.91 104.96 1266.98 104.96C1266.35 104.96 1265.74 105.067 1265.14 105.28C1264.54 105.48 1264.03 105.753 1263.62 106.1L1262.82 104.66C1263.36 104.22 1264.02 103.887 1264.78 103.66C1265.54 103.42 1266.34 103.3 1267.2 103.3ZM1266.76 112.64C1267.49 112.64 1268.12 112.48 1268.66 112.16C1269.19 111.827 1269.58 111.36 1269.82 110.76V109.28H1266.86C1265.23 109.28 1264.42 109.827 1264.42 110.92C1264.42 111.453 1264.62 111.873 1265.04 112.18C1265.45 112.487 1266.02 112.64 1266.76 112.64ZM1275.75 114.12C1275.38 114.12 1275.06 113.993 1274.79 113.74C1274.52 113.473 1274.39 113.14 1274.39 112.74C1274.39 112.353 1274.52 112.033 1274.79 111.78C1275.06 111.513 1275.38 111.38 1275.75 111.38C1276.12 111.38 1276.44 111.507 1276.69 111.76C1276.94 112.013 1277.07 112.34 1277.07 112.74C1277.07 113.14 1276.94 113.473 1276.67 113.74C1276.42 113.993 1276.11 114.12 1275.75 114.12Z" fill="white"/>
<path d="M689.008 115.46C687.263 115.46 685.701 115.076 684.313 114.298C682.934 113.521 681.843 112.456 681.049 111.093C680.254 109.731 679.853 108.185 679.853 106.465C679.853 104.745 680.254 103.173 681.049 101.836C681.843 100.5 682.925 99.4436 684.295 98.6664C685.666 97.8891 687.237 97.5049 689.008 97.5049C690.78 97.5049 692.316 97.8891 693.704 98.6489C695.083 99.4087 696.165 100.465 696.95 101.819C697.736 103.173 698.129 104.718 698.129 106.465C698.129 108.212 697.736 109.757 696.95 111.111C696.165 112.465 695.083 113.521 693.704 114.298C692.325 115.076 690.754 115.46 689.008 115.46ZM689.008 112.674C690.134 112.674 691.147 112.421 692.046 111.914C692.944 111.408 693.643 110.683 694.149 109.74C694.655 108.797 694.908 107.714 694.908 106.474C694.908 105.234 694.655 104.125 694.149 103.208C693.643 102.291 692.936 101.574 692.046 101.068C691.147 100.561 690.134 100.308 689.008 100.308C687.882 100.308 686.879 100.561 685.989 101.068C685.107 101.574 684.4 102.291 683.868 103.208C683.335 104.125 683.074 105.216 683.074 106.474C683.074 107.731 683.335 108.805 683.868 109.74C684.4 110.683 685.107 111.408 685.989 111.914C686.87 112.421 687.882 112.674 689.008 112.674Z" fill="white"/>
<path d="M703.601 115.259V97.6708H706.656V102.448L706.359 101.251C706.848 100.037 707.659 99.103 708.811 98.4655C709.963 97.828 711.377 97.5049 713.053 97.5049V100.588C712.922 100.57 712.791 100.553 712.669 100.553H712.32C710.618 100.553 709.265 101.059 708.27 102.081C707.275 103.103 706.778 104.57 706.778 106.491V115.25H703.592L703.601 115.259Z" fill="white"/>
<path d="M725.158 114.534C723.456 114.534 721.938 114.176 720.594 113.46C719.25 112.744 718.194 111.74 717.408 110.456C716.623 109.172 716.23 107.688 716.23 106.011C716.23 104.334 716.623 102.823 717.408 101.548C718.194 100.273 719.258 99.2865 720.594 98.5791C721.929 97.8717 723.448 97.5137 725.158 97.5137C726.659 97.5137 728.03 97.8193 729.269 98.4219C730.508 99.0332 731.495 99.9677 732.236 101.225C732.978 102.483 733.345 104.081 733.345 106.002C733.345 107.923 732.978 109.487 732.236 110.744C731.495 112.002 730.508 112.954 729.269 113.582C728.03 114.211 726.659 114.526 725.158 114.526V114.534ZM725.56 121.905C723.945 121.905 722.383 121.678 720.864 121.224C719.346 120.77 718.115 120.123 717.164 119.285L718.691 116.831C719.511 117.538 720.515 118.097 721.711 118.508C722.907 118.918 724.155 119.119 725.455 119.119C727.532 119.119 729.059 118.63 730.028 117.661C730.997 116.691 731.486 115.207 731.486 113.216V109.495L731.817 106.011L731.652 102.491V97.6796H734.671V112.875C734.671 115.975 733.895 118.255 732.35 119.713C730.805 121.171 728.536 121.905 725.551 121.905H725.56ZM725.525 111.748C726.694 111.748 727.733 111.504 728.641 111.015C729.548 110.526 730.264 109.853 730.779 108.989C731.302 108.124 731.556 107.129 731.556 106.002C731.556 104.876 731.294 103.88 730.779 103.015C730.264 102.151 729.548 101.487 728.641 101.007C727.733 100.535 726.694 100.291 725.525 100.291C724.355 100.291 723.308 100.527 722.392 101.007C721.475 101.478 720.751 102.151 720.236 103.015C719.721 103.88 719.459 104.876 719.459 106.002C719.459 107.129 719.721 108.124 720.236 108.989C720.76 109.853 721.475 110.526 722.392 111.015C723.308 111.504 724.355 111.748 725.525 111.748Z" fill="white"/>
<path d="M746.951 115.46C745.642 115.46 744.499 115.242 743.521 114.796C742.535 114.351 741.776 113.74 741.252 112.954C740.72 112.168 740.458 111.277 740.458 110.281C740.458 109.286 740.685 108.465 741.139 107.696C741.592 106.919 742.334 106.299 743.364 105.836C744.394 105.373 745.782 105.137 747.527 105.137H753.095V107.426H747.658C746.07 107.426 744.996 107.688 744.438 108.22C743.888 108.753 743.608 109.39 743.608 110.142C743.608 111.006 743.949 111.696 744.638 112.22C745.319 112.744 746.27 112.997 747.492 112.997C748.714 112.997 749.735 112.735 750.625 112.202C751.524 111.67 752.17 110.901 752.563 109.88L753.191 112.072C752.772 113.111 752.031 113.932 750.966 114.543C749.901 115.154 748.566 115.451 746.951 115.451V115.46ZM752.72 115.259V111.539L752.554 110.84V104.5C752.554 103.155 752.162 102.107 751.376 101.365C750.591 100.623 749.412 100.256 747.841 100.256C746.803 100.256 745.782 100.43 744.787 100.771C743.792 101.112 742.954 101.574 742.264 102.151L740.938 99.7579C741.845 99.0244 742.936 98.4655 744.202 98.0812C745.476 97.697 746.803 97.4961 748.199 97.4961C750.608 97.4961 752.467 98.0812 753.767 99.2514C755.068 100.422 755.722 102.221 755.722 104.631V115.25H752.703L752.72 115.259Z" fill="white"/>
<path d="M772.087 97.5049C773.527 97.5049 774.792 97.7843 775.883 98.3345C776.974 98.8847 777.838 99.7318 778.449 100.858C779.06 101.985 779.374 103.417 779.374 105.138V115.259H776.189V105.504C776.189 103.801 775.779 102.518 774.949 101.653C774.12 100.788 772.951 100.361 771.45 100.361C770.324 100.361 769.338 100.579 768.5 101.024C767.662 101.47 767.016 102.116 766.562 102.98C766.108 103.845 765.881 104.919 765.881 106.203V115.259H762.696V97.6708H765.75V102.413L765.253 101.155C765.829 100.003 766.711 99.1118 767.906 98.4655C769.102 97.828 770.49 97.5049 772.087 97.5049Z" fill="white"/>
<path d="M793.88 115.46C792.134 115.46 790.572 115.076 789.184 114.298C787.805 113.521 786.714 112.456 785.92 111.093C785.126 109.731 784.724 108.185 784.724 106.465C784.724 104.745 785.126 103.173 785.92 101.836C786.714 100.5 787.796 99.4436 789.167 98.6664C790.537 97.8891 792.108 97.5049 793.88 97.5049C795.651 97.5049 797.187 97.8891 798.575 98.6489C799.963 99.4087 801.036 100.465 801.822 101.819C802.607 103.173 803 104.718 803 106.465C803 108.212 802.607 109.757 801.822 111.111C801.036 112.465 799.954 113.521 798.575 114.298C797.196 115.076 795.625 115.46 793.88 115.46ZM793.88 112.674C795.006 112.674 796.018 112.421 796.917 111.914C797.816 111.408 798.514 110.683 799.02 109.74C799.526 108.797 799.78 107.714 799.78 106.474C799.78 105.234 799.526 104.125 799.02 103.208C798.514 102.291 797.807 101.574 796.917 101.068C796.018 100.561 795.014 100.308 793.88 100.308C792.745 100.308 791.741 100.561 790.86 101.068C789.978 101.574 789.271 102.291 788.739 103.208C788.207 104.125 787.945 105.216 787.945 106.474C787.945 107.731 788.207 108.805 788.739 109.74C789.271 110.683 789.978 111.408 790.86 111.914C791.741 112.421 792.754 112.674 793.88 112.674Z" fill="white"/>
<path d="M642.307 87.2262C642.525 87.6629 642.97 87.9423 643.459 87.9423C643.947 87.9423 644.393 87.6629 644.611 87.2262L649.795 76.8689C649.996 76.4671 649.97 75.9956 649.734 75.6113C649.498 75.2271 649.079 75 648.634 75H638.292C637.847 75 637.428 75.2358 637.192 75.6113C636.957 75.9956 636.939 76.4671 637.131 76.8689L642.307 87.2262ZM646.548 77.585L643.467 83.7592L640.387 77.585H646.548ZM643.467 112.971C645.187 112.971 646.828 112.29 648.041 111.076C649.254 109.862 649.935 108.212 649.935 106.5C649.935 104.788 649.254 103.138 648.041 101.924C646.828 100.71 645.178 100.029 643.467 100.029C641.757 100.029 640.107 100.71 638.894 101.924C637.681 103.138 637 104.788 637 106.5C637 108.212 637.681 109.862 638.894 111.076C640.107 112.29 641.748 112.971 643.467 112.971ZM643.467 102.614C644.497 102.614 645.484 103.024 646.217 103.749C646.941 104.474 647.351 105.47 647.351 106.5C647.351 107.53 646.941 108.517 646.217 109.251C645.492 109.976 644.497 110.386 643.467 110.386C642.438 110.386 641.451 109.976 640.718 109.251C639.994 108.526 639.584 107.53 639.584 106.5C639.584 105.47 639.994 104.483 640.718 103.749C641.443 103.024 642.438 102.614 643.467 102.614ZM638.292 138H648.643C649.359 138 649.935 137.424 649.935 136.708V126.35C649.935 125.634 649.359 125.058 648.643 125.058H638.292C637.576 125.058 637 125.634 637 126.35V136.708C637 137.424 637.576 138 638.292 138ZM639.584 127.643H647.351V135.415H639.584V127.643ZM660.286 130.236V107.792H652.954C652.239 107.792 651.663 107.216 651.663 106.5C651.663 105.784 652.239 105.208 652.954 105.208H660.286V82.7637H652.954C652.239 82.7637 651.663 82.1873 651.663 81.4712C651.663 80.7551 652.239 80.1787 652.954 80.1787H661.577C662.293 80.1787 662.869 80.7551 662.869 81.4712V105.208H670.2C670.916 105.208 671.492 105.784 671.492 106.5C671.492 107.216 670.916 107.792 670.2 107.792H662.869V131.529C662.869 132.245 662.293 132.821 661.577 132.821H652.954C652.239 132.821 651.663 132.245 651.663 131.529C651.663 130.813 652.239 130.236 652.954 130.236H660.286Z" fill="white"/>
<path d="M189.702 107C189.702 100.578 184.499 95.375 178.077 95.375C171.655 95.375 166.452 100.578 166.452 107C166.452 112.812 170.671 117.641 176.249 118.484V110.375H173.296V107H176.249V104.469C176.249 101.562 177.983 99.9219 180.608 99.9219C181.921 99.9219 183.233 100.156 183.233 100.156V103.016H181.78C180.327 103.016 179.858 103.906 179.858 104.844V107H183.093L182.577 110.375H179.858V118.484C185.436 117.641 189.702 112.812 189.702 107Z" fill="white"/>
<path d="M254.516 102.125C255.453 101.422 256.297 100.578 256.953 99.5938C256.109 99.9688 255.125 100.25 254.141 100.344C255.172 99.7344 255.922 98.7969 256.297 97.625C255.359 98.1875 254.281 98.6094 253.203 98.8438C252.266 97.8594 251 97.2969 249.594 97.2969C246.875 97.2969 244.672 99.5 244.672 102.219C244.672 102.594 244.719 102.969 244.812 103.344C240.734 103.109 237.078 101.141 234.641 98.1875C234.219 98.8906 233.984 99.7344 233.984 100.672C233.984 102.359 234.828 103.859 236.188 104.75C235.391 104.703 234.594 104.516 233.938 104.141V104.188C233.938 106.578 235.625 108.547 237.875 109.016C237.5 109.109 237.031 109.203 236.609 109.203C236.281 109.203 236 109.156 235.672 109.109C236.281 111.078 238.109 112.484 240.266 112.531C238.578 113.844 236.469 114.641 234.172 114.641C233.75 114.641 233.375 114.594 233 114.547C235.156 115.953 237.734 116.75 240.547 116.75C249.594 116.75 254.516 109.297 254.516 102.781C254.516 102.547 254.516 102.359 254.516 102.125Z" fill="white"/>
<path d="M310.5 101.609C307.5 101.609 305.109 104.047 305.109 107C305.109 110 307.5 112.391 310.5 112.391C313.453 112.391 315.891 110 315.891 107C315.891 104.047 313.453 101.609 310.5 101.609ZM310.5 110.516C308.578 110.516 306.984 108.969 306.984 107C306.984 105.078 308.531 103.531 310.5 103.531C312.422 103.531 313.969 105.078 313.969 107C313.969 108.969 312.422 110.516 310.5 110.516ZM317.344 101.422C317.344 100.719 316.781 100.156 316.078 100.156C315.375 100.156 314.812 100.719 314.812 101.422C314.812 102.125 315.375 102.688 316.078 102.688C316.781 102.688 317.344 102.125 317.344 101.422ZM320.906 102.688C320.812 101 320.438 99.5 319.219 98.2812C318 97.0625 316.5 96.6875 314.812 96.5938C313.078 96.5 307.875 96.5 306.141 96.5938C304.453 96.6875 303 97.0625 301.734 98.2812C300.516 99.5 300.141 101 300.047 102.688C299.953 104.422 299.953 109.625 300.047 111.359C300.141 113.047 300.516 114.5 301.734 115.766C303 116.984 304.453 117.359 306.141 117.453C307.875 117.547 313.078 117.547 314.812 117.453C316.5 117.359 318 116.984 319.219 115.766C320.438 114.5 320.812 113.047 320.906 111.359C321 109.625 321 104.422 320.906 102.688ZM318.656 113.188C318.328 114.125 317.578 114.828 316.688 115.203C315.281 115.766 312 115.625 310.5 115.625C308.953 115.625 305.672 115.766 304.312 115.203C303.375 114.828 302.672 114.125 302.297 113.188C301.734 111.828 301.875 108.547 301.875 107C301.875 105.5 301.734 102.219 302.297 100.812C302.672 99.9219 303.375 99.2188 304.312 98.8438C305.672 98.2812 308.953 98.4219 310.5 98.4219C312 98.4219 315.281 98.2812 316.688 98.8438C317.578 99.1719 318.281 99.9219 318.656 100.812C319.219 102.219 319.078 105.5 319.078 107C319.078 108.547 319.219 111.828 318.656 113.188Z" fill="white"/>
<circle cx="932.5" cy="69.5" r="43.5" stroke="white" stroke-width="2"/>
<path d="M436.812 107.642L526.319 83.6586L502.336 173.166L436.812 107.642Z" stroke="#95FFD4" stroke-width="2"/>
<path d="M36.7609 173.5L74 109L111.239 173.5H36.7609Z" stroke="#95FFD4" stroke-width="2"/>
<circle cx="1400.5" cy="177.5" r="54.5" stroke="#95FFD4" stroke-width="2"/>
</svg>
